<svg height="512pt" viewBox="0 0 512 512" width="512pt" xmlns="http://www.w3.org/2000/svg"><path d="m512 256c0 141.386719-114.613281 256-256 256s-256-114.613281-256-256 114.613281-256 256-256 256 114.613281 256 256zm0 0" fill="#f03049"/><path d="m512 256c0-5.921875-.21875-11.792969-.613281-17.613281l-122.386719-122.386719-11.320312 69.679688-69.679688-69.679688-9.855469 69.144531-69.144531-69.144531-7.882812 73.117188-73.117188-73.117188-61 76 42.285156 42.285156-11.285156 161.714844 114.957031 114.957031c7.59375.675781 15.273438 1.042969 23.042969 1.042969 141.386719 0 256-114.613281 256-256zm0 0" fill="#d1093a"/><path d="m118 116h30v280h-30zm0 0" fill="#595959"/><path d="m118 255.90625h30v140.09375h-30zm0 0" fill="#383838"/><path d="m87 147h92v45h-92zm0 0" fill="#ffe733"/><path d="m199 116h30v280h-30zm0 0" fill="#595959"/><path d="m199 255.90625h30v140.09375h-30zm0 0" fill="#383838"/><path d="m168 286h92v45h-92zm0 0" fill="#f7c908"/><path d="m278 116h30v280h-30zm0 0" fill="#595959"/><path d="m278 255.90625h30v140.09375h-30zm0 0" fill="#383838"/><path d="m247 147h92v45h-92zm0 0" fill="#ffe733"/><path d="m359 116h30v280h-30zm0 0" fill="#595959"/><path d="m359 255.90625h30v140.09375h-30zm0 0" fill="#383838"/><path d="m328 286h92v45h-92zm0 0" fill="#f7c908"/></svg>